# xmcd
# 
# Track frame offsets:
#     150
#     19445
#     32717
#     47900
# 
# Disc length: 935
# 
# Revision: 0
# Processed by: cddbd v1.5.2PL0 Copyright (c) Steve Scherf et al.
# Submitted via: fre:ac v1.0.17
# 
DISCID=3003a504
DTITLE=Kinky Machine - London Crawling
DYEAR=1995
DGENRE=
TTITLE0=London Crawling
TTITLE1=Waiting For the Weekend
TTITLE2=Love Like Semtex
TTITLE3=Hello Hello I'm Back Again
EXTD=
EXTT0=
EXTT1=
EXTT2=
EXTT3=
PLAYORDER=
